<?xml version="1.0" encoding="UTF-8" standalone="no"?><svg xmlns="http://www.w3.org/2000/svg" xmlns:xlink="http://www.w3.org/1999/xlink" contentScriptType="application/ecmascript" contentStyleType="text/css" height="592px" preserveAspectRatio="none" style="width:1829px;height:592px;" version="1.1" viewBox="0 0 1829 592" width="1829px" zoomAndPan="magnify"><defs><filter height="300%" id="f1jb6wgzr16qog" width="300%" x="-1" y="-1"><feGaussianBlur result="blurOut" stdDeviation="2.0"/><feColorMatrix in="blurOut" result="blurOut2" type="matrix" values="0 0 0 0 0 0 0 0 0 0 0 0 0 0 0 0 0 0 .4 0"/><feOffset dx="4.0" dy="4.0" in="blurOut2" result="blurOut3"/><feBlend in="SourceGraphic" in2="blurOut3" mode="normal"/></filter></defs><g><text fill="#000000" font-family="sans-serif" font-size="18" lengthAdjust="spacing" textLength="335" x="740.5" y="16.708">Class Diagram - LodeRunner Project</text><!--MD5=[82d9c97a467af7c0b2c072e754b85475]
class GameController--><rect codeLine="3" fill="#FEFECE" filter="url(#f1jb6wgzr16qog)" height="86.4141" id="GameController" style="stroke:#A80036;stroke-width:1.5;" width="126" x="69.5" y="53.9531"/><ellipse cx="84.5" cy="69.9531" fill="#ADD1B2" rx="11" ry="11" style="stroke:#A80036;stroke-width:1.0;"/><path d="M86.8438,65.625 C85.9063,65.1875 85.3125,65.0469 84.4375,65.0469 C81.8125,65.0469 79.8125,67.125 79.8125,69.8438 L79.8125,70.9688 C79.8125,73.5469 81.9219,75.4375 84.8125,75.4375 C86.0313,75.4375 87.1875,75.1406 87.9375,74.5938 C88.5156,74.1875 88.8438,73.7344 88.8438,73.3438 C88.8438,72.8906 88.4531,72.5 87.9844,72.5 C87.7656,72.5 87.5625,72.5781 87.375,72.7656 C86.9219,73.25 86.9219,73.25 86.7344,73.3438 C86.3125,73.6094 85.625,73.7344 84.8594,73.7344 C82.8125,73.7344 81.5156,72.6406 81.5156,70.9375 L81.5156,69.8438 C81.5156,68.0625 82.7656,66.75 84.5,66.75 C85.0781,66.75 85.6875,66.9063 86.1563,67.1563 C86.6406,67.4375 86.8125,67.6563 86.9063,68.0625 C86.9688,68.4688 87,68.5938 87.1406,68.7188 C87.2813,68.8594 87.5156,68.9688 87.7344,68.9688 C88,68.9688 88.2656,68.8281 88.4375,68.6094 C88.5469,68.4531 88.5781,68.2656 88.5781,67.8438 L88.5781,66.4219 C88.5781,65.9844 88.5625,65.8594 88.4688,65.7031 C88.3125,65.4375 88.0313,65.2969 87.7344,65.2969 C87.4375,65.2969 87.2344,65.3906 87.0156,65.7031 L86.8438,65.625 Z " fill="#000000"/><text fill="#000000" font-family="sans-serif" font-size="12" lengthAdjust="spacing" textLength="94" x="98.5" y="74.1074">GameController</text><line style="stroke:#A80036;stroke-width:1.5;" x1="70.5" x2="194.5" y1="85.9531" y2="85.9531"/><line style="stroke:#A80036;stroke-width:1.5;" x1="70.5" x2="194.5" y1="93.9531" y2="93.9531"/><text fill="#000000" font-family="sans-serif" font-size="11" lengthAdjust="spacing" textLength="101" x="75.5" y="108.1636">void MenuMode();</text><text fill="#000000" font-family="sans-serif" font-size="11" lengthAdjust="spacing" textLength="0" x="79.5" y="120.9683"/><text fill="#000000" font-family="sans-serif" font-size="11" lengthAdjust="spacing" textLength="93" x="75.5" y="133.7729">void PlayMode();</text><!--MD5=[f0268dd29ee89052933f031546cb1cab]
class Menu--><rect codeLine="10" fill="#FEFECE" filter="url(#f1jb6wgzr16qog)" height="60.8047" id="Menu" style="stroke:#A80036;stroke-width:1.5;" width="231" x="231" y="66.4531"/><ellipse cx="326.25" cy="82.4531" fill="#ADD1B2" rx="11" ry="11" style="stroke:#A80036;stroke-width:1.0;"/><path d="M328.5938,78.125 C327.6563,77.6875 327.0625,77.5469 326.1875,77.5469 C323.5625,77.5469 321.5625,79.625 321.5625,82.3438 L321.5625,83.4688 C321.5625,86.0469 323.6719,87.9375 326.5625,87.9375 C327.7813,87.9375 328.9375,87.6406 329.6875,87.0938 C330.2656,86.6875 330.5938,86.2344 330.5938,85.8438 C330.5938,85.3906 330.2031,85 329.7344,85 C329.5156,85 329.3125,85.0781 329.125,85.2656 C328.6719,85.75 328.6719,85.75 328.4844,85.8438 C328.0625,86.1094 327.375,86.2344 326.6094,86.2344 C324.5625,86.2344 323.2656,85.1406 323.2656,83.4375 L323.2656,82.3438 C323.2656,80.5625 324.5156,79.25 326.25,79.25 C326.8281,79.25 327.4375,79.4063 327.9063,79.6563 C328.3906,79.9375 328.5625,80.1563 328.6563,80.5625 C328.7188,80.9688 328.75,81.0938 328.8906,81.2188 C329.0313,81.3594 329.2656,81.4688 329.4844,81.4688 C329.75,81.4688 330.0156,81.3281 330.1875,81.1094 C330.2969,80.9531 330.3281,80.7656 330.3281,80.3438 L330.3281,78.9219 C330.3281,78.4844 330.3125,78.3594 330.2188,78.2031 C330.0625,77.9375 329.7813,77.7969 329.4844,77.7969 C329.1875,77.7969 328.9844,77.8906 328.7656,78.2031 L328.5938,78.125 Z " fill="#000000"/><text fill="#000000" font-family="sans-serif" font-size="12" lengthAdjust="spacing" textLength="32" x="346.75" y="86.6074">Menu</text><line style="stroke:#A80036;stroke-width:1.5;" x1="232" x2="461" y1="98.4531" y2="98.4531"/><line style="stroke:#A80036;stroke-width:1.5;" x1="232" x2="461" y1="106.4531" y2="106.4531"/><text fill="#000000" font-family="sans-serif" font-size="11" lengthAdjust="spacing" textLength="219" x="237" y="120.6636">void draw(sf::RenderWindow&amp; window)</text><!--MD5=[90ba54f54370e77ef24813dec6818fa3]
class Button--><rect codeLine="13" fill="#FEFECE" filter="url(#f1jb6wgzr16qog)" height="60.8047" id="Button" style="stroke:#A80036;stroke-width:1.5;" width="231" x="497" y="66.4531"/><ellipse cx="589.25" cy="82.4531" fill="#ADD1B2" rx="11" ry="11" style="stroke:#A80036;stroke-width:1.0;"/><path d="M591.5938,78.125 C590.6563,77.6875 590.0625,77.5469 589.1875,77.5469 C586.5625,77.5469 584.5625,79.625 584.5625,82.3438 L584.5625,83.4688 C584.5625,86.0469 586.6719,87.9375 589.5625,87.9375 C590.7813,87.9375 591.9375,87.6406 592.6875,87.0938 C593.2656,86.6875 593.5938,86.2344 593.5938,85.8438 C593.5938,85.3906 593.2031,85 592.7344,85 C592.5156,85 592.3125,85.0781 592.125,85.2656 C591.6719,85.75 591.6719,85.75 591.4844,85.8438 C591.0625,86.1094 590.375,86.2344 589.6094,86.2344 C587.5625,86.2344 586.2656,85.1406 586.2656,83.4375 L586.2656,82.3438 C586.2656,80.5625 587.5156,79.25 589.25,79.25 C589.8281,79.25 590.4375,79.4063 590.9063,79.6563 C591.3906,79.9375 591.5625,80.1563 591.6563,80.5625 C591.7188,80.9688 591.75,81.0938 591.8906,81.2188 C592.0313,81.3594 592.2656,81.4688 592.4844,81.4688 C592.75,81.4688 593.0156,81.3281 593.1875,81.1094 C593.2969,80.9531 593.3281,80.7656 593.3281,80.3438 L593.3281,78.9219 C593.3281,78.4844 593.3125,78.3594 593.2188,78.2031 C593.0625,77.9375 592.7813,77.7969 592.4844,77.7969 C592.1875,77.7969 591.9844,77.8906 591.7656,78.2031 L591.5938,78.125 Z " fill="#000000"/><text fill="#000000" font-family="sans-serif" font-size="12" lengthAdjust="spacing" textLength="38" x="609.75" y="86.6074">Button</text><line style="stroke:#A80036;stroke-width:1.5;" x1="498" x2="727" y1="98.4531" y2="98.4531"/><line style="stroke:#A80036;stroke-width:1.5;" x1="498" x2="727" y1="106.4531" y2="106.4531"/><text fill="#000000" font-family="sans-serif" font-size="11" lengthAdjust="spacing" textLength="219" x="503" y="120.6636">void draw(sf::RenderWindow&amp; window)</text><!--MD5=[1b844c90688aafb95cd8c95626c3b83a]
class Timer--><rect codeLine="16" fill="#FEFECE" filter="url(#f1jb6wgzr16qog)" height="73.6094" id="Timer" style="stroke:#A80036;stroke-width:1.5;" width="251" x="7" y="231.9531"/><ellipse cx="111.25" cy="247.9531" fill="#ADD1B2" rx="11" ry="11" style="stroke:#A80036;stroke-width:1.0;"/><path d="M113.5938,243.625 C112.6563,243.1875 112.0625,243.0469 111.1875,243.0469 C108.5625,243.0469 106.5625,245.125 106.5625,247.8438 L106.5625,248.9688 C106.5625,251.5469 108.6719,253.4375 111.5625,253.4375 C112.7813,253.4375 113.9375,253.1406 114.6875,252.5938 C115.2656,252.1875 115.5938,251.7344 115.5938,251.3438 C115.5938,250.8906 115.2031,250.5 114.7344,250.5 C114.5156,250.5 114.3125,250.5781 114.125,250.7656 C113.6719,251.25 113.6719,251.25 113.4844,251.3438 C113.0625,251.6094 112.375,251.7344 111.6094,251.7344 C109.5625,251.7344 108.2656,250.6406 108.2656,248.9375 L108.2656,247.8438 C108.2656,246.0625 109.5156,244.75 111.25,244.75 C111.8281,244.75 112.4375,244.9063 112.9063,245.1563 C113.3906,245.4375 113.5625,245.6563 113.6563,246.0625 C113.7188,246.4688 113.75,246.5938 113.8906,246.7188 C114.0313,246.8594 114.2656,246.9688 114.4844,246.9688 C114.75,246.9688 115.0156,246.8281 115.1875,246.6094 C115.2969,246.4531 115.3281,246.2656 115.3281,245.8438 L115.3281,244.4219 C115.3281,243.9844 115.3125,243.8594 115.2188,243.7031 C115.0625,243.4375 114.7813,243.2969 114.4844,243.2969 C114.1875,243.2969 113.9844,243.3906 113.7656,243.7031 L113.5938,243.625 Z " fill="#000000"/><text fill="#000000" font-family="sans-serif" font-size="12" lengthAdjust="spacing" textLength="34" x="131.75" y="252.1074">Timer</text><line style="stroke:#A80036;stroke-width:1.5;" x1="8" x2="257" y1="263.9531" y2="263.9531"/><line style="stroke:#A80036;stroke-width:1.5;" x1="8" x2="257" y1="271.9531" y2="271.9531"/><text fill="#000000" font-family="sans-serif" font-size="11" lengthAdjust="spacing" textLength="239" x="13" y="286.1636">void UpdateTimer(const int GenralTime);{</text><text fill="#000000" font-family="sans-serif" font-size="11" lengthAdjust="spacing" textLength="219" x="13" y="298.9683">void draw(sf::RenderWindow&amp; window)</text><!--MD5=[064f7a74fee85463ec1a30143664ee17]
class GameObject--><rect codeLine="22" fill="#FEFECE" filter="url(#f1jb6wgzr16qog)" height="137.6328" id="GameObject" style="stroke:#A80036;stroke-width:1.5;" width="352" x="944.5" y="27.9531"/><ellipse cx="1078.75" cy="43.9531" fill="#ADD1B2" rx="11" ry="11" style="stroke:#A80036;stroke-width:1.0;"/><path d="M1081.0938,39.625 C1080.1563,39.1875 1079.5625,39.0469 1078.6875,39.0469 C1076.0625,39.0469 1074.0625,41.125 1074.0625,43.8438 L1074.0625,44.9688 C1074.0625,47.5469 1076.1719,49.4375 1079.0625,49.4375 C1080.2813,49.4375 1081.4375,49.1406 1082.1875,48.5938 C1082.7656,48.1875 1083.0938,47.7344 1083.0938,47.3438 C1083.0938,46.8906 1082.7031,46.5 1082.2344,46.5 C1082.0156,46.5 1081.8125,46.5781 1081.625,46.7656 C1081.1719,47.25 1081.1719,47.25 1080.9844,47.3438 C1080.5625,47.6094 1079.875,47.7344 1079.1094,47.7344 C1077.0625,47.7344 1075.7656,46.6406 1075.7656,44.9375 L1075.7656,43.8438 C1075.7656,42.0625 1077.0156,40.75 1078.75,40.75 C1079.3281,40.75 1079.9375,40.9063 1080.4063,41.1563 C1080.8906,41.4375 1081.0625,41.6563 1081.1563,42.0625 C1081.2188,42.4688 1081.25,42.5938 1081.3906,42.7188 C1081.5313,42.8594 1081.7656,42.9688 1081.9844,42.9688 C1082.25,42.9688 1082.5156,42.8281 1082.6875,42.6094 C1082.7969,42.4531 1082.8281,42.2656 1082.8281,41.8438 L1082.8281,40.4219 C1082.8281,39.9844 1082.8125,39.8594 1082.7188,39.7031 C1082.5625,39.4375 1082.2813,39.2969 1081.9844,39.2969 C1081.6875,39.2969 1081.4844,39.3906 1081.2656,39.7031 L1081.0938,39.625 Z " fill="#000000"/><text fill="#000000" font-family="sans-serif" font-size="12" lengthAdjust="spacing" textLength="75" x="1099.25" y="48.1074">GameObject</text><line style="stroke:#A80036;stroke-width:1.5;" x1="945.5" x2="1295.5" y1="59.9531" y2="59.9531"/><text fill="#000000" font-family="sans-serif" font-size="11" lengthAdjust="spacing" textLength="0" x="954.5" y="74.1636"/><text fill="#000000" font-family="sans-serif" font-size="11" lengthAdjust="spacing" textLength="115" x="950.5" y="86.9683">Location m_location;</text><text fill="#000000" font-family="sans-serif" font-size="11" lengthAdjust="spacing" textLength="109" x="950.5" y="99.7729">sf::Vector2f m_size</text><text fill="#000000" font-family="sans-serif" font-size="11" lengthAdjust="spacing" textLength="80" x="950.5" y="112.5776">char m_shape</text><text fill="#000000" font-family="sans-serif" font-size="11" lengthAdjust="spacing" textLength="103" x="950.5" y="125.3823">sf::Sprite m_sprite</text><line style="stroke:#A80036;stroke-width:1.5;" x1="945.5" x2="1295.5" y1="131.9766" y2="131.9766"/><text fill="#000000" font-family="sans-serif" font-size="11" lengthAdjust="spacing" textLength="235" x="950.5" y="146.187">void draw(sf::RenderWindow&amp; window)=0</text><text fill="#000000" font-family="sans-serif" font-size="11" lengthAdjust="spacing" textLength="340" x="950.5" y="158.9917">virtual void handleCollision(GameObject&amp; gameObject) = 0</text><!--MD5=[7c650d6d2ce103bec6d76affe2c6d46b]
class StaticObject--><rect codeLine="35" fill="#FEFECE" filter="url(#f1jb6wgzr16qog)" height="60.8047" id="StaticObject" style="stroke:#A80036;stroke-width:1.5;" width="231" x="825" y="238.4531"/><ellipse cx="899.75" cy="254.4531" fill="#ADD1B2" rx="11" ry="11" style="stroke:#A80036;stroke-width:1.0;"/><path d="M902.0938,250.125 C901.1563,249.6875 900.5625,249.5469 899.6875,249.5469 C897.0625,249.5469 895.0625,251.625 895.0625,254.3438 L895.0625,255.4688 C895.0625,258.0469 897.1719,259.9375 900.0625,259.9375 C901.2813,259.9375 902.4375,259.6406 903.1875,259.0938 C903.7656,258.6875 904.0938,258.2344 904.0938,257.8438 C904.0938,257.3906 903.7031,257 903.2344,257 C903.0156,257 902.8125,257.0781 902.625,257.2656 C902.1719,257.75 902.1719,257.75 901.9844,257.8438 C901.5625,258.1094 900.875,258.2344 900.1094,258.2344 C898.0625,258.2344 896.7656,257.1406 896.7656,255.4375 L896.7656,254.3438 C896.7656,252.5625 898.0156,251.25 899.75,251.25 C900.3281,251.25 900.9375,251.4063 901.4063,251.6563 C901.8906,251.9375 902.0625,252.1563 902.1563,252.5625 C902.2188,252.9688 902.25,253.0938 902.3906,253.2188 C902.5313,253.3594 902.7656,253.4688 902.9844,253.4688 C903.25,253.4688 903.5156,253.3281 903.6875,253.1094 C903.7969,252.9531 903.8281,252.7656 903.8281,252.3438 L903.8281,250.9219 C903.8281,250.4844 903.8125,250.3594 903.7188,250.2031 C903.5625,249.9375 903.2813,249.7969 902.9844,249.7969 C902.6875,249.7969 902.4844,249.8906 902.2656,250.2031 L902.0938,250.125 Z " fill="#000000"/><text fill="#000000" font-family="sans-serif" font-size="12" lengthAdjust="spacing" textLength="73" x="920.25" y="258.6074">StaticObject</text><line style="stroke:#A80036;stroke-width:1.5;" x1="826" x2="1055" y1="270.4531" y2="270.4531"/><line style="stroke:#A80036;stroke-width:1.5;" x1="826" x2="1055" y1="278.4531" y2="278.4531"/><text fill="#000000" font-family="sans-serif" font-size="11" lengthAdjust="spacing" textLength="219" x="831" y="292.6636">void draw(sf::RenderWindow&amp; window)</text><!--MD5=[08dfe6c59ed9ecb4018cfd2b80128be4]
class Wall--><rect codeLine="39" fill="#FEFECE" filter="url(#f1jb6wgzr16qog)" height="60.8047" id="Wall" style="stroke:#A80036;stroke-width:1.5;" width="231" x="160" y="384.4531"/><ellipse cx="258.75" cy="400.4531" fill="#ADD1B2" rx="11" ry="11" style="stroke:#A80036;stroke-width:1.0;"/><path d="M261.0938,396.125 C260.1563,395.6875 259.5625,395.5469 258.6875,395.5469 C256.0625,395.5469 254.0625,397.625 254.0625,400.3438 L254.0625,401.4688 C254.0625,404.0469 256.1719,405.9375 259.0625,405.9375 C260.2813,405.9375 261.4375,405.6406 262.1875,405.0938 C262.7656,404.6875 263.0938,404.2344 263.0938,403.8438 C263.0938,403.3906 262.7031,403 262.2344,403 C262.0156,403 261.8125,403.0781 261.625,403.2656 C261.1719,403.75 261.1719,403.75 260.9844,403.8438 C260.5625,404.1094 259.875,404.2344 259.1094,404.2344 C257.0625,404.2344 255.7656,403.1406 255.7656,401.4375 L255.7656,400.3438 C255.7656,398.5625 257.0156,397.25 258.75,397.25 C259.3281,397.25 259.9375,397.4063 260.4063,397.6563 C260.8906,397.9375 261.0625,398.1563 261.1563,398.5625 C261.2188,398.9688 261.25,399.0938 261.3906,399.2188 C261.5313,399.3594 261.7656,399.4688 261.9844,399.4688 C262.25,399.4688 262.5156,399.3281 262.6875,399.1094 C262.7969,398.9531 262.8281,398.7656 262.8281,398.3438 L262.8281,396.9219 C262.8281,396.4844 262.8125,396.3594 262.7188,396.2031 C262.5625,395.9375 262.2813,395.7969 261.9844,395.7969 C261.6875,395.7969 261.4844,395.8906 261.2656,396.2031 L261.0938,396.125 Z " fill="#000000"/><text fill="#000000" font-family="sans-serif" font-size="12" lengthAdjust="spacing" textLength="25" x="279.25" y="404.6074">Wall</text><line style="stroke:#A80036;stroke-width:1.5;" x1="161" x2="390" y1="416.4531" y2="416.4531"/><line style="stroke:#A80036;stroke-width:1.5;" x1="161" x2="390" y1="424.4531" y2="424.4531"/><text fill="#000000" font-family="sans-serif" font-size="11" lengthAdjust="spacing" textLength="219" x="166" y="438.6636">void draw(sf::RenderWindow&amp; window)</text><!--MD5=[4986b83e9bd62404d41350bb52758c36]
class Ladder--><rect codeLine="42" fill="#FEFECE" filter="url(#f1jb6wgzr16qog)" height="60.8047" id="Ladder" style="stroke:#A80036;stroke-width:1.5;" width="231" x="426" y="384.4531"/><ellipse cx="516.25" cy="400.4531" fill="#ADD1B2" rx="11" ry="11" style="stroke:#A80036;stroke-width:1.0;"/><path d="M518.5938,396.125 C517.6563,395.6875 517.0625,395.5469 516.1875,395.5469 C513.5625,395.5469 511.5625,397.625 511.5625,400.3438 L511.5625,401.4688 C511.5625,404.0469 513.6719,405.9375 516.5625,405.9375 C517.7813,405.9375 518.9375,405.6406 519.6875,405.0938 C520.2656,404.6875 520.5938,404.2344 520.5938,403.8438 C520.5938,403.3906 520.2031,403 519.7344,403 C519.5156,403 519.3125,403.0781 519.125,403.2656 C518.6719,403.75 518.6719,403.75 518.4844,403.8438 C518.0625,404.1094 517.375,404.2344 516.6094,404.2344 C514.5625,404.2344 513.2656,403.1406 513.2656,401.4375 L513.2656,400.3438 C513.2656,398.5625 514.5156,397.25 516.25,397.25 C516.8281,397.25 517.4375,397.4063 517.9063,397.6563 C518.3906,397.9375 518.5625,398.1563 518.6563,398.5625 C518.7188,398.9688 518.75,399.0938 518.8906,399.2188 C519.0313,399.3594 519.2656,399.4688 519.4844,399.4688 C519.75,399.4688 520.0156,399.3281 520.1875,399.1094 C520.2969,398.9531 520.3281,398.7656 520.3281,398.3438 L520.3281,396.9219 C520.3281,396.4844 520.3125,396.3594 520.2188,396.2031 C520.0625,395.9375 519.7813,395.7969 519.4844,395.7969 C519.1875,395.7969 518.9844,395.8906 518.7656,396.2031 L518.5938,396.125 Z " fill="#000000"/><text fill="#000000" font-family="sans-serif" font-size="12" lengthAdjust="spacing" textLength="42" x="536.75" y="404.6074">Ladder</text><line style="stroke:#A80036;stroke-width:1.5;" x1="427" x2="656" y1="416.4531" y2="416.4531"/><line style="stroke:#A80036;stroke-width:1.5;" x1="427" x2="656" y1="424.4531" y2="424.4531"/><text fill="#000000" font-family="sans-serif" font-size="11" lengthAdjust="spacing" textLength="219" x="432" y="438.6636">void draw(sf::RenderWindow&amp; window)</text><!--MD5=[01de473505348ff6b0d272715d0048f7]
class Rope--><rect codeLine="45" fill="#FEFECE" filter="url(#f1jb6wgzr16qog)" height="60.8047" id="Rope" style="stroke:#A80036;stroke-width:1.5;" width="231" x="692" y="384.4531"/><ellipse cx="787.75" cy="400.4531" fill="#ADD1B2" rx="11" ry="11" style="stroke:#A80036;stroke-width:1.0;"/><path d="M790.0938,396.125 C789.1563,395.6875 788.5625,395.5469 787.6875,395.5469 C785.0625,395.5469 783.0625,397.625 783.0625,400.3438 L783.0625,401.4688 C783.0625,404.0469 785.1719,405.9375 788.0625,405.9375 C789.2813,405.9375 790.4375,405.6406 791.1875,405.0938 C791.7656,404.6875 792.0938,404.2344 792.0938,403.8438 C792.0938,403.3906 791.7031,403 791.2344,403 C791.0156,403 790.8125,403.0781 790.625,403.2656 C790.1719,403.75 790.1719,403.75 789.9844,403.8438 C789.5625,404.1094 788.875,404.2344 788.1094,404.2344 C786.0625,404.2344 784.7656,403.1406 784.7656,401.4375 L784.7656,400.3438 C784.7656,398.5625 786.0156,397.25 787.75,397.25 C788.3281,397.25 788.9375,397.4063 789.4063,397.6563 C789.8906,397.9375 790.0625,398.1563 790.1563,398.5625 C790.2188,398.9688 790.25,399.0938 790.3906,399.2188 C790.5313,399.3594 790.7656,399.4688 790.9844,399.4688 C791.25,399.4688 791.5156,399.3281 791.6875,399.1094 C791.7969,398.9531 791.8281,398.7656 791.8281,398.3438 L791.8281,396.9219 C791.8281,396.4844 791.8125,396.3594 791.7188,396.2031 C791.5625,395.9375 791.2813,395.7969 790.9844,395.7969 C790.6875,395.7969 790.4844,395.8906 790.2656,396.2031 L790.0938,396.125 Z " fill="#000000"/><text fill="#000000" font-family="sans-serif" font-size="12" lengthAdjust="spacing" textLength="31" x="808.25" y="404.6074">Rope</text><line style="stroke:#A80036;stroke-width:1.5;" x1="693" x2="922" y1="416.4531" y2="416.4531"/><line style="stroke:#A80036;stroke-width:1.5;" x1="693" x2="922" y1="424.4531" y2="424.4531"/><text fill="#000000" font-family="sans-serif" font-size="11" lengthAdjust="spacing" textLength="219" x="698" y="438.6636">void draw(sf::RenderWindow&amp; window)</text><!--MD5=[1da8f80c0a6f875dfd1b47fac061377f]
class Coin--><rect codeLine="48" fill="#FEFECE" filter="url(#f1jb6wgzr16qog)" height="60.8047" id="Coin" style="stroke:#A80036;stroke-width:1.5;" width="231" x="958" y="384.4531"/><ellipse cx="1056.25" cy="400.4531" fill="#ADD1B2" rx="11" ry="11" style="stroke:#A80036;stroke-width:1.0;"/><path d="M1058.5938,396.125 C1057.6563,395.6875 1057.0625,395.5469 1056.1875,395.5469 C1053.5625,395.5469 1051.5625,397.625 1051.5625,400.3438 L1051.5625,401.4688 C1051.5625,404.0469 1053.6719,405.9375 1056.5625,405.9375 C1057.7813,405.9375 1058.9375,405.6406 1059.6875,405.0938 C1060.2656,404.6875 1060.5938,404.2344 1060.5938,403.8438 C1060.5938,403.3906 1060.2031,403 1059.7344,403 C1059.5156,403 1059.3125,403.0781 1059.125,403.2656 C1058.6719,403.75 1058.6719,403.75 1058.4844,403.8438 C1058.0625,404.1094 1057.375,404.2344 1056.6094,404.2344 C1054.5625,404.2344 1053.2656,403.1406 1053.2656,401.4375 L1053.2656,400.3438 C1053.2656,398.5625 1054.5156,397.25 1056.25,397.25 C1056.8281,397.25 1057.4375,397.4063 1057.9063,397.6563 C1058.3906,397.9375 1058.5625,398.1563 1058.6563,398.5625 C1058.7188,398.9688 1058.75,399.0938 1058.8906,399.2188 C1059.0313,399.3594 1059.2656,399.4688 1059.4844,399.4688 C1059.75,399.4688 1060.0156,399.3281 1060.1875,399.1094 C1060.2969,398.9531 1060.3281,398.7656 1060.3281,398.3438 L1060.3281,396.9219 C1060.3281,396.4844 1060.3125,396.3594 1060.2188,396.2031 C1060.0625,395.9375 1059.7813,395.7969 1059.4844,395.7969 C1059.1875,395.7969 1058.9844,395.8906 1058.7656,396.2031 L1058.5938,396.125 Z " fill="#000000"/><text fill="#000000" font-family="sans-serif" font-size="12" lengthAdjust="spacing" textLength="26" x="1076.75" y="404.6074">Coin</text><line style="stroke:#A80036;stroke-width:1.5;" x1="959" x2="1188" y1="416.4531" y2="416.4531"/><line style="stroke:#A80036;stroke-width:1.5;" x1="959" x2="1188" y1="424.4531" y2="424.4531"/><text fill="#000000" font-family="sans-serif" font-size="11" lengthAdjust="spacing" textLength="219" x="964" y="438.6636">void draw(sf::RenderWindow&amp; window)</text><!--MD5=[2731afa3914a2f1855b4f1ebf120a43f]
class Gift--><rect codeLine="52" fill="#FEFECE" filter="url(#f1jb6wgzr16qog)" height="60.8047" id="Gift" style="stroke:#A80036;stroke-width:1.5;" width="231" x="293" y="238.4531"/><ellipse cx="394.25" cy="254.4531" fill="#ADD1B2" rx="11" ry="11" style="stroke:#A80036;stroke-width:1.0;"/><path d="M396.5938,250.125 C395.6563,249.6875 395.0625,249.5469 394.1875,249.5469 C391.5625,249.5469 389.5625,251.625 389.5625,254.3438 L389.5625,255.4688 C389.5625,258.0469 391.6719,259.9375 394.5625,259.9375 C395.7813,259.9375 396.9375,259.6406 397.6875,259.0938 C398.2656,258.6875 398.5938,258.2344 398.5938,257.8438 C398.5938,257.3906 398.2031,257 397.7344,257 C397.5156,257 397.3125,257.0781 397.125,257.2656 C396.6719,257.75 396.6719,257.75 396.4844,257.8438 C396.0625,258.1094 395.375,258.2344 394.6094,258.2344 C392.5625,258.2344 391.2656,257.1406 391.2656,255.4375 L391.2656,254.3438 C391.2656,252.5625 392.5156,251.25 394.25,251.25 C394.8281,251.25 395.4375,251.4063 395.9063,251.6563 C396.3906,251.9375 396.5625,252.1563 396.6563,252.5625 C396.7188,252.9688 396.75,253.0938 396.8906,253.2188 C397.0313,253.3594 397.2656,253.4688 397.4844,253.4688 C397.75,253.4688 398.0156,253.3281 398.1875,253.1094 C398.2969,252.9531 398.3281,252.7656 398.3281,252.3438 L398.3281,250.9219 C398.3281,250.4844 398.3125,250.3594 398.2188,250.2031 C398.0625,249.9375 397.7813,249.7969 397.4844,249.7969 C397.1875,249.7969 396.9844,249.8906 396.7656,250.2031 L396.5938,250.125 Z " fill="#000000"/><text fill="#000000" font-family="sans-serif" font-size="12" lengthAdjust="spacing" textLength="20" x="414.75" y="258.6074">Gift</text><line style="stroke:#A80036;stroke-width:1.5;" x1="294" x2="523" y1="270.4531" y2="270.4531"/><line style="stroke:#A80036;stroke-width:1.5;" x1="294" x2="523" y1="278.4531" y2="278.4531"/><text fill="#000000" font-family="sans-serif" font-size="11" lengthAdjust="spacing" textLength="219" x="299" y="292.6636">void draw(sf::RenderWindow&amp; window)</text><!--MD5=[a053607a724f2f7ca68d54a6ddba3e0d]
class GameStats--><rect codeLine="56" fill="#FEFECE" filter="url(#f1jb6wgzr16qog)" height="86.4141" id="GameStats" style="stroke:#A80036;stroke-width:1.5;" width="231" x="559" y="225.9531"/><ellipse cx="637.75" cy="241.9531" fill="#ADD1B2" rx="11" ry="11" style="stroke:#A80036;stroke-width:1.0;"/><path d="M640.0938,237.625 C639.1563,237.1875 638.5625,237.0469 637.6875,237.0469 C635.0625,237.0469 633.0625,239.125 633.0625,241.8438 L633.0625,242.9688 C633.0625,245.5469 635.1719,247.4375 638.0625,247.4375 C639.2813,247.4375 640.4375,247.1406 641.1875,246.5938 C641.7656,246.1875 642.0938,245.7344 642.0938,245.3438 C642.0938,244.8906 641.7031,244.5 641.2344,244.5 C641.0156,244.5 640.8125,244.5781 640.625,244.7656 C640.1719,245.25 640.1719,245.25 639.9844,245.3438 C639.5625,245.6094 638.875,245.7344 638.1094,245.7344 C636.0625,245.7344 634.7656,244.6406 634.7656,242.9375 L634.7656,241.8438 C634.7656,240.0625 636.0156,238.75 637.75,238.75 C638.3281,238.75 638.9375,238.9063 639.4063,239.1563 C639.8906,239.4375 640.0625,239.6563 640.1563,240.0625 C640.2188,240.4688 640.25,240.5938 640.3906,240.7188 C640.5313,240.8594 640.7656,240.9688 640.9844,240.9688 C641.25,240.9688 641.5156,240.8281 641.6875,240.6094 C641.7969,240.4531 641.8281,240.2656 641.8281,239.8438 L641.8281,238.4219 C641.8281,237.9844 641.8125,237.8594 641.7188,237.7031 C641.5625,237.4375 641.2813,237.2969 640.9844,237.2969 C640.6875,237.2969 640.4844,237.3906 640.2656,237.7031 L640.0938,237.625 Z " fill="#000000"/><text fill="#000000" font-family="sans-serif" font-size="12" lengthAdjust="spacing" textLength="65" x="658.25" y="246.1074">GameStats</text><line style="stroke:#A80036;stroke-width:1.5;" x1="560" x2="789" y1="257.9531" y2="257.9531"/><text fill="#000000" font-family="sans-serif" font-size="11" lengthAdjust="spacing" textLength="66" x="565" y="272.1636">int m_score</text><text fill="#000000" font-family="sans-serif" font-size="11" lengthAdjust="spacing" textLength="64" x="565" y="284.9683">int m_level</text><line style="stroke:#A80036;stroke-width:1.5;" x1="560" x2="789" y1="291.5625" y2="291.5625"/><text fill="#000000" font-family="sans-serif" font-size="11" lengthAdjust="spacing" textLength="219" x="565" y="305.7729">void draw(sf::RenderWindow&amp; window)</text><!--MD5=[8072a37dd611d5912734cd8b2e7e1e72]
class DynamicObject--><rect codeLine="63" fill="#FEFECE" filter="url(#f1jb6wgzr16qog)" height="73.6094" id="DynamicObject" style="stroke:#A80036;stroke-width:1.5;" width="231" x="1318" y="231.9531"/><ellipse cx="1383.75" cy="247.9531" fill="#ADD1B2" rx="11" ry="11" style="stroke:#A80036;stroke-width:1.0;"/><path d="M1386.0938,243.625 C1385.1563,243.1875 1384.5625,243.0469 1383.6875,243.0469 C1381.0625,243.0469 1379.0625,245.125 1379.0625,247.8438 L1379.0625,248.9688 C1379.0625,251.5469 1381.1719,253.4375 1384.0625,253.4375 C1385.2813,253.4375 1386.4375,253.1406 1387.1875,252.5938 C1387.7656,252.1875 1388.0938,251.7344 1388.0938,251.3438 C1388.0938,250.8906 1387.7031,250.5 1387.2344,250.5 C1387.0156,250.5 1386.8125,250.5781 1386.625,250.7656 C1386.1719,251.25 1386.1719,251.25 1385.9844,251.3438 C1385.5625,251.6094 1384.875,251.7344 1384.1094,251.7344 C1382.0625,251.7344 1380.7656,250.6406 1380.7656,248.9375 L1380.7656,247.8438 C1380.7656,246.0625 1382.0156,244.75 1383.75,244.75 C1384.3281,244.75 1384.9375,244.9063 1385.4063,245.1563 C1385.8906,245.4375 1386.0625,245.6563 1386.1563,246.0625 C1386.2188,246.4688 1386.25,246.5938 1386.3906,246.7188 C1386.5313,246.8594 1386.7656,246.9688 1386.9844,246.9688 C1387.25,246.9688 1387.5156,246.8281 1387.6875,246.6094 C1387.7969,246.4531 1387.8281,246.2656 1387.8281,245.8438 L1387.8281,244.4219 C1387.8281,243.9844 1387.8125,243.8594 1387.7188,243.7031 C1387.5625,243.4375 1387.2813,243.2969 1386.9844,243.2969 C1386.6875,243.2969 1386.4844,243.3906 1386.2656,243.7031 L1386.0938,243.625 Z " fill="#000000"/><text fill="#000000" font-family="sans-serif" font-size="12" lengthAdjust="spacing" textLength="91" x="1404.25" y="252.1074">DynamicObject</text><line style="stroke:#A80036;stroke-width:1.5;" x1="1319" x2="1548" y1="263.9531" y2="263.9531"/><line style="stroke:#A80036;stroke-width:1.5;" x1="1319" x2="1548" y1="271.9531" y2="271.9531"/><text fill="#000000" font-family="sans-serif" font-size="11" lengthAdjust="spacing" textLength="190" x="1324" y="286.1636">void move(Controller&amp; controller)</text><text fill="#000000" font-family="sans-serif" font-size="11" lengthAdjust="spacing" textLength="219" x="1324" y="298.9683">void draw(sf::RenderWindow&amp; window)</text><!--MD5=[80c532e980642ebbe770e7ed91e479d0]
class Enemy--><rect codeLine="69" fill="#FEFECE" filter="url(#f1jb6wgzr16qog)" height="60.8047" id="Enemy" style="stroke:#A80036;stroke-width:1.5;" width="231" x="1318" y="384.4531"/><ellipse cx="1409.25" cy="400.4531" fill="#ADD1B2" rx="11" ry="11" style="stroke:#A80036;stroke-width:1.0;"/><path d="M1411.5938,396.125 C1410.6563,395.6875 1410.0625,395.5469 1409.1875,395.5469 C1406.5625,395.5469 1404.5625,397.625 1404.5625,400.3438 L1404.5625,401.4688 C1404.5625,404.0469 1406.6719,405.9375 1409.5625,405.9375 C1410.7813,405.9375 1411.9375,405.6406 1412.6875,405.0938 C1413.2656,404.6875 1413.5938,404.2344 1413.5938,403.8438 C1413.5938,403.3906 1413.2031,403 1412.7344,403 C1412.5156,403 1412.3125,403.0781 1412.125,403.2656 C1411.6719,403.75 1411.6719,403.75 1411.4844,403.8438 C1411.0625,404.1094 1410.375,404.2344 1409.6094,404.2344 C1407.5625,404.2344 1406.2656,403.1406 1406.2656,401.4375 L1406.2656,400.3438 C1406.2656,398.5625 1407.5156,397.25 1409.25,397.25 C1409.8281,397.25 1410.4375,397.4063 1410.9063,397.6563 C1411.3906,397.9375 1411.5625,398.1563 1411.6563,398.5625 C1411.7188,398.9688 1411.75,399.0938 1411.8906,399.2188 C1412.0313,399.3594 1412.2656,399.4688 1412.4844,399.4688 C1412.75,399.4688 1413.0156,399.3281 1413.1875,399.1094 C1413.2969,398.9531 1413.3281,398.7656 1413.3281,398.3438 L1413.3281,396.9219 C1413.3281,396.4844 1413.3125,396.3594 1413.2188,396.2031 C1413.0625,395.9375 1412.7813,395.7969 1412.4844,395.7969 C1412.1875,395.7969 1411.9844,395.8906 1411.7656,396.2031 L1411.5938,396.125 Z " fill="#000000"/><text fill="#000000" font-family="sans-serif" font-size="12" lengthAdjust="spacing" textLength="40" x="1429.75" y="404.6074">Enemy</text><line style="stroke:#A80036;stroke-width:1.5;" x1="1319" x2="1548" y1="416.4531" y2="416.4531"/><line style="stroke:#A80036;stroke-width:1.5;" x1="1319" x2="1548" y1="424.4531" y2="424.4531"/><text fill="#000000" font-family="sans-serif" font-size="11" lengthAdjust="spacing" textLength="219" x="1324" y="438.6636">void draw(sf::RenderWindow&amp; window)</text><!--MD5=[da4cbb6cd783dbb8963258d4f3625b9d]
class SmartEnemy--><rect codeLine="73" fill="#FEFECE" filter="url(#f1jb6wgzr16qog)" height="60.8047" id="SmartEnemy" style="stroke:#A80036;stroke-width:1.5;" width="202" x="1095.5" y="517.9531"/><ellipse cx="1154.75" cy="533.9531" fill="#ADD1B2" rx="11" ry="11" style="stroke:#A80036;stroke-width:1.0;"/><path d="M1157.0938,529.625 C1156.1563,529.1875 1155.5625,529.0469 1154.6875,529.0469 C1152.0625,529.0469 1150.0625,531.125 1150.0625,533.8438 L1150.0625,534.9688 C1150.0625,537.5469 1152.1719,539.4375 1155.0625,539.4375 C1156.2813,539.4375 1157.4375,539.1406 1158.1875,538.5938 C1158.7656,538.1875 1159.0938,537.7344 1159.0938,537.3438 C1159.0938,536.8906 1158.7031,536.5 1158.2344,536.5 C1158.0156,536.5 1157.8125,536.5781 1157.625,536.7656 C1157.1719,537.25 1157.1719,537.25 1156.9844,537.3438 C1156.5625,537.6094 1155.875,537.7344 1155.1094,537.7344 C1153.0625,537.7344 1151.7656,536.6406 1151.7656,534.9375 L1151.7656,533.8438 C1151.7656,532.0625 1153.0156,530.75 1154.75,530.75 C1155.3281,530.75 1155.9375,530.9063 1156.4063,531.1563 C1156.8906,531.4375 1157.0625,531.6563 1157.1563,532.0625 C1157.2188,532.4688 1157.25,532.5938 1157.3906,532.7188 C1157.5313,532.8594 1157.7656,532.9688 1157.9844,532.9688 C1158.25,532.9688 1158.5156,532.8281 1158.6875,532.6094 C1158.7969,532.4531 1158.8281,532.2656 1158.8281,531.8438 L1158.8281,530.4219 C1158.8281,529.9844 1158.8125,529.8594 1158.7188,529.7031 C1158.5625,529.4375 1158.2813,529.2969 1157.9844,529.2969 C1157.6875,529.2969 1157.4844,529.3906 1157.2656,529.7031 L1157.0938,529.625 Z " fill="#000000"/><text fill="#000000" font-family="sans-serif" font-size="12" lengthAdjust="spacing" textLength="75" x="1175.25" y="538.1074">SmartEnemy</text><line style="stroke:#A80036;stroke-width:1.5;" x1="1096.5" x2="1296.5" y1="549.9531" y2="549.9531"/><line style="stroke:#A80036;stroke-width:1.5;" x1="1096.5" x2="1296.5" y1="557.9531" y2="557.9531"/><text fill="#000000" font-family="sans-serif" font-size="11" lengthAdjust="spacing" textLength="190" x="1101.5" y="572.1636">void move(Controller&amp; controller)</text><!--MD5=[fd57be3a01ab072d05c172044028d34e]
class ConstEnemy--><rect codeLine="77" fill="#FEFECE" filter="url(#f1jb6wgzr16qog)" height="60.8047" id="ConstEnemy" style="stroke:#A80036;stroke-width:1.5;" width="202" x="1332.5" y="517.9531"/><ellipse cx="1392.25" cy="533.9531" fill="#ADD1B2" rx="11" ry="11" style="stroke:#A80036;stroke-width:1.0;"/><path d="M1394.5938,529.625 C1393.6563,529.1875 1393.0625,529.0469 1392.1875,529.0469 C1389.5625,529.0469 1387.5625,531.125 1387.5625,533.8438 L1387.5625,534.9688 C1387.5625,537.5469 1389.6719,539.4375 1392.5625,539.4375 C1393.7813,539.4375 1394.9375,539.1406 1395.6875,538.5938 C1396.2656,538.1875 1396.5938,537.7344 1396.5938,537.3438 C1396.5938,536.8906 1396.2031,536.5 1395.7344,536.5 C1395.5156,536.5 1395.3125,536.5781 1395.125,536.7656 C1394.6719,537.25 1394.6719,537.25 1394.4844,537.3438 C1394.0625,537.6094 1393.375,537.7344 1392.6094,537.7344 C1390.5625,537.7344 1389.2656,536.6406 1389.2656,534.9375 L1389.2656,533.8438 C1389.2656,532.0625 1390.5156,530.75 1392.25,530.75 C1392.8281,530.75 1393.4375,530.9063 1393.9063,531.1563 C1394.3906,531.4375 1394.5625,531.6563 1394.6563,532.0625 C1394.7188,532.4688 1394.75,532.5938 1394.8906,532.7188 C1395.0313,532.8594 1395.2656,532.9688 1395.4844,532.9688 C1395.75,532.9688 1396.0156,532.8281 1396.1875,532.6094 C1396.2969,532.4531 1396.3281,532.2656 1396.3281,531.8438 L1396.3281,530.4219 C1396.3281,529.9844 1396.3125,529.8594 1396.2188,529.7031 C1396.0625,529.4375 1395.7813,529.2969 1395.4844,529.2969 C1395.1875,529.2969 1394.9844,529.3906 1394.7656,529.7031 L1394.5938,529.625 Z " fill="#000000"/><text fill="#000000" font-family="sans-serif" font-size="12" lengthAdjust="spacing" textLength="74" x="1412.75" y="538.1074">ConstEnemy</text><line style="stroke:#A80036;stroke-width:1.5;" x1="1333.5" x2="1533.5" y1="549.9531" y2="549.9531"/><line style="stroke:#A80036;stroke-width:1.5;" x1="1333.5" x2="1533.5" y1="557.9531" y2="557.9531"/><text fill="#000000" font-family="sans-serif" font-size="11" lengthAdjust="spacing" textLength="190" x="1338.5" y="572.1636">void move(Controller&amp; controller)</text><!--MD5=[859385d0b2ec7740ef5a230854e9bf17]
class RandomEnemy--><rect codeLine="80" fill="#FEFECE" filter="url(#f1jb6wgzr16qog)" height="60.8047" id="RandomEnemy" style="stroke:#A80036;stroke-width:1.5;" width="202" x="1569.5" y="517.9531"/><ellipse cx="1622.25" cy="533.9531" fill="#ADD1B2" rx="11" ry="11" style="stroke:#A80036;stroke-width:1.0;"/><path d="M1624.5938,529.625 C1623.6563,529.1875 1623.0625,529.0469 1622.1875,529.0469 C1619.5625,529.0469 1617.5625,531.125 1617.5625,533.8438 L1617.5625,534.9688 C1617.5625,537.5469 1619.6719,539.4375 1622.5625,539.4375 C1623.7813,539.4375 1624.9375,539.1406 1625.6875,538.5938 C1626.2656,538.1875 1626.5938,537.7344 1626.5938,537.3438 C1626.5938,536.8906 1626.2031,536.5 1625.7344,536.5 C1625.5156,536.5 1625.3125,536.5781 1625.125,536.7656 C1624.6719,537.25 1624.6719,537.25 1624.4844,537.3438 C1624.0625,537.6094 1623.375,537.7344 1622.6094,537.7344 C1620.5625,537.7344 1619.2656,536.6406 1619.2656,534.9375 L1619.2656,533.8438 C1619.2656,532.0625 1620.5156,530.75 1622.25,530.75 C1622.8281,530.75 1623.4375,530.9063 1623.9063,531.1563 C1624.3906,531.4375 1624.5625,531.6563 1624.6563,532.0625 C1624.7188,532.4688 1624.75,532.5938 1624.8906,532.7188 C1625.0313,532.8594 1625.2656,532.9688 1625.4844,532.9688 C1625.75,532.9688 1626.0156,532.8281 1626.1875,532.6094 C1626.2969,532.4531 1626.3281,532.2656 1626.3281,531.8438 L1626.3281,530.4219 C1626.3281,529.9844 1626.3125,529.8594 1626.2188,529.7031 C1626.0625,529.4375 1625.7813,529.2969 1625.4844,529.2969 C1625.1875,529.2969 1624.9844,529.3906 1624.7656,529.7031 L1624.5938,529.625 Z " fill="#000000"/><text fill="#000000" font-family="sans-serif" font-size="12" lengthAdjust="spacing" textLength="88" x="1642.75" y="538.1074">RandomEnemy</text><line style="stroke:#A80036;stroke-width:1.5;" x1="1570.5" x2="1770.5" y1="549.9531" y2="549.9531"/><line style="stroke:#A80036;stroke-width:1.5;" x1="1570.5" x2="1770.5" y1="557.9531" y2="557.9531"/><text fill="#000000" font-family="sans-serif" font-size="11" lengthAdjust="spacing" textLength="190" x="1575.5" y="572.1636">void move(Controller&amp; controller)</text><!--MD5=[2cb47ba637a0d19583e6199456f6ad0b]
class Player--><rect codeLine="84" fill="#FEFECE" filter="url(#f1jb6wgzr16qog)" height="86.4141" id="Player" style="stroke:#A80036;stroke-width:1.5;" width="231" x="1584" y="371.9531"/><ellipse cx="1677.25" cy="387.9531" fill="#ADD1B2" rx="11" ry="11" style="stroke:#A80036;stroke-width:1.0;"/><path d="M1679.5938,383.625 C1678.6563,383.1875 1678.0625,383.0469 1677.1875,383.0469 C1674.5625,383.0469 1672.5625,385.125 1672.5625,387.8438 L1672.5625,388.9688 C1672.5625,391.5469 1674.6719,393.4375 1677.5625,393.4375 C1678.7813,393.4375 1679.9375,393.1406 1680.6875,392.5938 C1681.2656,392.1875 1681.5938,391.7344 1681.5938,391.3438 C1681.5938,390.8906 1681.2031,390.5 1680.7344,390.5 C1680.5156,390.5 1680.3125,390.5781 1680.125,390.7656 C1679.6719,391.25 1679.6719,391.25 1679.4844,391.3438 C1679.0625,391.6094 1678.375,391.7344 1677.6094,391.7344 C1675.5625,391.7344 1674.2656,390.6406 1674.2656,388.9375 L1674.2656,387.8438 C1674.2656,386.0625 1675.5156,384.75 1677.25,384.75 C1677.8281,384.75 1678.4375,384.9063 1678.9063,385.1563 C1679.3906,385.4375 1679.5625,385.6563 1679.6563,386.0625 C1679.7188,386.4688 1679.75,386.5938 1679.8906,386.7188 C1680.0313,386.8594 1680.2656,386.9688 1680.4844,386.9688 C1680.75,386.9688 1681.0156,386.8281 1681.1875,386.6094 C1681.2969,386.4531 1681.3281,386.2656 1681.3281,385.8438 L1681.3281,384.4219 C1681.3281,383.9844 1681.3125,383.8594 1681.2188,383.7031 C1681.0625,383.4375 1680.7813,383.2969 1680.4844,383.2969 C1680.1875,383.2969 1679.9844,383.3906 1679.7656,383.7031 L1679.5938,383.625 Z " fill="#000000"/><text fill="#000000" font-family="sans-serif" font-size="12" lengthAdjust="spacing" textLength="36" x="1697.75" y="392.1074">Player</text><line style="stroke:#A80036;stroke-width:1.5;" x1="1585" x2="1814" y1="403.9531" y2="403.9531"/><text fill="#000000" font-family="sans-serif" font-size="11" lengthAdjust="spacing" textLength="56" x="1590" y="418.1636">int m_life;</text><line style="stroke:#A80036;stroke-width:1.5;" x1="1585" x2="1814" y1="424.7578" y2="424.7578"/><text fill="#000000" font-family="sans-serif" font-size="11" lengthAdjust="spacing" textLength="190" x="1590" y="438.9683">void move(Controller&amp; controller)</text><text fill="#000000" font-family="sans-serif" font-size="11" lengthAdjust="spacing" textLength="219" x="1590" y="451.7729">void draw(sf::RenderWindow&amp; window)</text><!--MD5=[4c196ad019c44eeb91dd3b109ed1a4f7]
class Gifts--><rect fill="#FEFECE" filter="url(#f1jb6wgzr16qog)" height="48" id="Gifts" style="stroke:#A80036;stroke-width:1.5;" width="59" x="1224" y="390.9531"/><ellipse cx="1239" cy="406.9531" fill="#ADD1B2" rx="11" ry="11" style="stroke:#A80036;stroke-width:1.0;"/><path d="M1241.3438,402.625 C1240.4063,402.1875 1239.8125,402.0469 1238.9375,402.0469 C1236.3125,402.0469 1234.3125,404.125 1234.3125,406.8438 L1234.3125,407.9688 C1234.3125,410.5469 1236.4219,412.4375 1239.3125,412.4375 C1240.5313,412.4375 1241.6875,412.1406 1242.4375,411.5938 C1243.0156,411.1875 1243.3438,410.7344 1243.3438,410.3438 C1243.3438,409.8906 1242.9531,409.5 1242.4844,409.5 C1242.2656,409.5 1242.0625,409.5781 1241.875,409.7656 C1241.4219,410.25 1241.4219,410.25 1241.2344,410.3438 C1240.8125,410.6094 1240.125,410.7344 1239.3594,410.7344 C1237.3125,410.7344 1236.0156,409.6406 1236.0156,407.9375 L1236.0156,406.8438 C1236.0156,405.0625 1237.2656,403.75 1239,403.75 C1239.5781,403.75 1240.1875,403.9063 1240.6563,404.1563 C1241.1406,404.4375 1241.3125,404.6563 1241.4063,405.0625 C1241.4688,405.4688 1241.5,405.5938 1241.6406,405.7188 C1241.7813,405.8594 1242.0156,405.9688 1242.2344,405.9688 C1242.5,405.9688 1242.7656,405.8281 1242.9375,405.6094 C1243.0469,405.4531 1243.0781,405.2656 1243.0781,404.8438 L1243.0781,403.4219 C1243.0781,402.9844 1243.0625,402.8594 1242.9688,402.7031 C1242.8125,402.4375 1242.5313,402.2969 1242.2344,402.2969 C1241.9375,402.2969 1241.7344,402.3906 1241.5156,402.7031 L1241.3438,402.625 Z " fill="#000000"/><text fill="#000000" font-family="sans-serif" font-size="12" lengthAdjust="spacing" textLength="27" x="1253" y="411.1074">Gifts</text><line style="stroke:#A80036;stroke-width:1.5;" x1="1225" x2="1282" y1="422.9531" y2="422.9531"/><line style="stroke:#A80036;stroke-width:1.5;" x1="1225" x2="1282" y1="430.9531" y2="430.9531"/><!--MD5=[3f6a4c34994d4146dd180a52a2c16efa]
reverse link GameObject to DynamicObject--><path codeLine="91" d="M1263.59,175.6671 C1299.62,195.2391 1336.61,215.3311 1366.84,231.7491 " fill="none" id="GameObject-backto-DynamicObject" style="stroke:#A80036;stroke-width:1.0;"/><polygon fill="none" points="1260.24,181.8161,1246.01,166.1191,1266.92,169.5131,1260.24,181.8161" style="stroke:#A80036;stroke-width:1.0;"/><!--MD5=[940e2cd556672cabbc1b8de745429c73]
reverse link DynamicObject to Player--><path codeLine="92" d="M1518.2,315.8051 C1551.43,333.7951 1589.32,354.3061 1621.84,371.9091 " fill="none" id="DynamicObject-backto-Player" style="stroke:#A80036;stroke-width:1.0;"/><polygon fill="none" points="1514.54,321.7821,1500.28,306.1041,1521.2,309.4701,1514.54,321.7821" style="stroke:#A80036;stroke-width:1.0;"/><!--MD5=[d332e6b840e29a6657eb1483e71af06a]
reverse link DynamicObject to Enemy--><path codeLine="93" d="M1433.5,326.4501 C1433.5,346.2561 1433.5,367.7051 1433.5,384.4111 " fill="none" id="DynamicObject-backto-Enemy" style="stroke:#A80036;stroke-width:1.0;"/><polygon fill="none" points="1426.5,326.2901,1433.5,306.2901,1440.5,326.2901,1426.5,326.2901" style="stroke:#A80036;stroke-width:1.0;"/><!--MD5=[da97430bd50e48d5f0fd4faf6b46084d]
reverse link Enemy to ConstEnemy--><path codeLine="94" d="M1433.5,465.6381 C1433.5,483.1298 1433.5,502.2377 1433.5,517.5855 " fill="none" id="Enemy-backto-ConstEnemy" style="stroke:#A80036;stroke-width:1.0;"/><polygon fill="none" points="1426.5,465.4641,1433.5,445.4641,1440.5,465.4641,1426.5,465.4641" style="stroke:#A80036;stroke-width:1.0;"/><!--MD5=[5b5394bede911c79796994743a510458]
reverse link Enemy to SmartEnemy--><path codeLine="95" d="M1362.67,455.2511 C1326.51,475.3161 1283.24,499.3254 1249.92,517.8132 " fill="none" id="Enemy-backto-SmartEnemy" style="stroke:#A80036;stroke-width:1.0;"/><polygon fill="none" points="1359.43,449.0471,1380.31,445.4641,1366.22,461.2891,1359.43,449.0471" style="stroke:#A80036;stroke-width:1.0;"/><!--MD5=[de9947cfe5f26f5c407117cc4194e262]
reverse link Enemy to RandomEnemy--><path codeLine="96" d="M1504.33,455.2511 C1540.49,475.3161 1583.76,499.3254 1617.08,517.8132 " fill="none" id="Enemy-backto-RandomEnemy" style="stroke:#A80036;stroke-width:1.0;"/><polygon fill="none" points="1500.78,461.2891,1486.69,445.4641,1507.57,449.0471,1500.78,461.2891" style="stroke:#A80036;stroke-width:1.0;"/><!--MD5=[3d074c31ed68b2798fedff600a9094b1]
reverse link GameObject to StaticObject--><path codeLine="98" d="M1033.51,180.1071 C1011.41,200.9781 989.074,222.0771 971.828,238.3661 " fill="none" id="GameObject-backto-StaticObject" style="stroke:#A80036;stroke-width:1.0;"/><polygon fill="none" points="1028.98,174.7621,1048.32,166.1191,1038.59,184.9411,1028.98,174.7621" style="stroke:#A80036;stroke-width:1.0;"/><!--MD5=[94ef435faca7cbcab2c30bb21b94acb3]
reverse link StaticObject to Wall--><path codeLine="99" d="M834.194,305.1371 C825.212,307.6171 816.228,309.9321 807.5,311.9531 C632.796,352.4111 583.204,331.4951 408.5,371.9531 C393.402,375.4491 377.541,379.8221 362.242,384.4151 " fill="none" id="StaticObject-backto-Wall" style="stroke:#A80036;stroke-width:1.0;"/><polygon fill="none" points="832.602,298.3111,853.758,299.4911,836.484,311.7621,832.602,298.3111" style="stroke:#A80036;stroke-width:1.0;"/><!--MD5=[1137f5941ed1989153b55a6e59b2a617]
reverse link StaticObject to Ladder--><path codeLine="100" d="M839.115,306.5431 C772.22,330.6861 685.728,361.9011 623.241,384.4531 " fill="none" id="StaticObject-backto-Ladder" style="stroke:#A80036;stroke-width:1.0;"/><polygon fill="none" points="837.122,299.8201,858.311,299.6151,841.875,312.9891,837.122,299.8201" style="stroke:#A80036;stroke-width:1.0;"/><!--MD5=[3e64ef58fa83d49f3b94cf55cd98e54b]
reverse link StaticObject to Rope--><path codeLine="101" d="M899.23,314.6361 C878.345,337.2491 853.561,364.0831 835.022,384.1541 " fill="none" id="StaticObject-backto-Rope" style="stroke:#A80036;stroke-width:1.0;"/><polygon fill="none" points="894.23,309.7331,912.942,299.7901,904.515,319.2321,894.23,309.7331" style="stroke:#A80036;stroke-width:1.0;"/><!--MD5=[eefeba67eb3ac32ce4a5537351fcc1b3]
reverse link StaticObject to Coin--><path codeLine="102" d="M981.77,314.6361 C1002.655,337.2491 1027.44,364.0831 1045.98,384.1541 " fill="none" id="StaticObject-backto-Coin" style="stroke:#A80036;stroke-width:1.0;"/><polygon fill="none" points="976.485,319.2321,968.058,299.7901,986.77,309.7331,976.485,319.2321" style="stroke:#A80036;stroke-width:1.0;"/><!--MD5=[907a96c17d72cf161aa97f6221746f22]
reverse link StaticObject to Gifts--><path codeLine="103" d="M1062.06,306.1031 C1108.98,322.6941 1161.97,344.7891 1206.5,371.9531 C1215.09,377.1961 1223.58,384.0941 1230.93,390.7821 " fill="none" id="StaticObject-backto-Gifts" style="stroke:#A80036;stroke-width:1.0;"/><polygon fill="none" points="1059.68,312.6881,1043.05,299.5601,1064.24,299.4511,1059.68,312.6881" style="stroke:#A80036;stroke-width:1.0;"/><!--MD5=[9e6b734aefa510b91a84ea0f1150e25c]
link GameController to Menu--><!--MD5=[351ca5f961452e3344bdecf000038a45]
link Menu to Button--><!--MD5=[2e2f2b9a0a888a4d5914b16a69aa0d7f]
link GameController to Timer--><!--MD5=[5fe04fbf15a57652fb6e3d01de10c157]
link Timer to Gift--><!--MD5=[52d914a793cc170941d3c9247de1f763]
link Gift to GameStats--><!--MD5=[aac53a3c2ac312e095b8ceffd712947a]
@startuml
title Class Diagram - LodeRunner Project

class GameController {

	void MenuMode();

	void PlayMode();
}

class Menu {
  void draw(sf::RenderWindow& window)
}
class Button {
  void draw(sf::RenderWindow& window)
}
class Timer{
  void UpdateTimer(const int GenralTime);{
  void draw(sf::RenderWindow& window)
}


class GameObject {
  void draw(sf::RenderWindow& window)=0
    
  Location m_location;
  sf::Vector2f m_size
  char m_shape
  sf::Sprite m_sprite
  virtual void handleCollision(GameObject& gameObject) = 0
  
}



class StaticObject {
  void draw(sf::RenderWindow& window)
}

class Wall {
  void draw(sf::RenderWindow& window)
}
class Ladder {
  void draw(sf::RenderWindow& window)
}
class Rope {
  void draw(sf::RenderWindow& window)
}
class Coin {
  void draw(sf::RenderWindow& window)
}

class Gift {
  void draw(sf::RenderWindow& window)
}

class GameStats {
  void draw(sf::RenderWindow& window)

  int m_score
  int m_level
}

class DynamicObject {
  void move(Controller& controller)
  void draw(sf::RenderWindow& window)
}


class Enemy {
  void draw(sf::RenderWindow& window)
}

class SmartEnemy {
  void move(Controller& controller)
  
}
class ConstEnemy {
  void move(Controller& controller)
}
class RandomEnemy {
  void move(Controller& controller)
}

class Player {
  void move(Controller& controller)
  void draw(sf::RenderWindow& window)
  
  int m_life;
}

GameObject <|- - DynamicObject
DynamicObject <|- - Player
DynamicObject <|- - Enemy
Enemy <|- - ConstEnemy
Enemy <|- - SmartEnemy
Enemy <|- - RandomEnemy

GameObject <|- - StaticObject
StaticObject <|- - Wall
StaticObject <|- - Ladder
StaticObject <|- - Rope
StaticObject <|- - Coin
StaticObject <|- - Gifts
@enduml

PlantUML version 1.2021.01beta3(Unknown compile time)
(GPL source distribution)
Java Runtime: Java(TM) SE Runtime Environment
JVM: Java HotSpot(TM) 64-Bit Server VM
Default Encoding: UTF-8
Language: en
Country: US
--></g></svg>